<svg xmlns="http://www.w3.org/2000/svg" viewBox="0 0 25.45 33.45" fill="none" stroke="#1d1d1b" stroke-linejoin="round" stroke-width="3" xmlns:v="https://vecta.io/nano"><path d="M12.83 31.43h0c1.16 0 1.44-.56 2.11-1.5l6.07-9.37a13.52 13.52 0 0 0 2.5-7.85v-.63c0-1.72-1.99-4.97-3.09-6.29l-1.63-2.05a5.18 5.18 0 0 0-3.98-1.87h-3.85c-1.51 0-2.95.66-3.93 1.81L4.9 6.23c-1.14 1.34-2.77 4.15-2.77 5.91v.57c0 2.81.87 5.55 2.5 7.85l5.95 9.37c.67.94 1.08 1.5 2.23 1.5z"/><ellipse cx="12.95" cy="11.92" rx="3.87" ry="3.27"/></svg>