<svg xmlns="http://www.w3.org/2000/svg" viewBox="0 0 62.3 54.13" fill="none" stroke="#222" stroke-linecap="round" stroke-linejoin="round" stroke-width="6" xmlns:v="https://vecta.io/nano"><path d="M10.9 34.12c-2.22-2.53-3.84-4.89-5.79-7.96 3.92-6.11 8.17-11.43 12.85-15.73 3.44-3.15 8.01-4.78 12.67-4.78h0c3.67 0 5.61-.06 8.86 1.5m8.02 7.24c3.6 3.82 6.69 8.22 9.37 13.06-3.7 5.37-8.6 9.6-14.54 12.87-3.39 1.86-7.22 2.76-11.09 2.76h-1.83c-2.88 0-6.4-.74-9.05-1.73m35.91-35.8L11.26 50.08m17.77-25.01h2.75"/></svg>