<?xml version="1.0" encoding="UTF-8"?>
<svg id="_Слой_2" data-name="Слой 2" xmlns="http://www.w3.org/2000/svg" viewBox="0 0 31.66 24.51">
  <defs>
    <style>
      .cls-1 {
        fill: #1d1d1b;
      }

      .cls-1, .cls-2 {
        stroke: #1d1d1b;
        stroke-linecap: round;
        stroke-linejoin: round;
      }

      .cls-2 {
        fill: none;
        stroke-width: 3px;
      }
    </style>
  </defs>
  <rect class="cls-1" x="2.17" y="1.53" width="18.51" height="17.68"/>
  <rect class="cls-1" x="20.04" y="12.51" width="10.72" height="6.7" rx="2.01" ry="2.01"/>
  <path class="cls-2" d="M6.13,17.11v3.83c0,.88,.71,1.6,1.6,1.6h2.94c.88,0,1.6-.71,1.6-1.6v-4.21s-6.13,.19-6.13,.38Z"/>
  <path class="cls-2" d="M20.46,17.01v3.83c0,.88,.71,1.6,1.6,1.6h2.94c.88,0,1.6-.71,1.6-1.6v-4.21s-6.13,.19-6.13,.38Z"/>
  <path class="cls-2" d="M19.11,6.71h5.14c1.6,0,2.89,1.23,2.9,2.75l.04,4.01h-8.04l-.04-6.76Z"/>
</svg>