<svg xmlns="http://www.w3.org/2000/svg" viewBox="0 0 31.66 24.51" xmlns:v="https://vecta.io/nano"><g fill="#1d1d1b" stroke="#1d1d1b" stroke-linejoin="round"><path d="M2.17 1.53h18.51v17.68H2.17z"/><rect x="20.04" y="12.51" width="10.72" height="6.7" rx="2.01"/></g><path d="M6.13 17.11v3.83a1.6 1.6 0 0 0 1.6 1.6h2.94a1.6 1.6 0 0 0 1.6-1.6v-4.21l-6.13.38zm14.33-.1v3.83a1.6 1.6 0 0 0 1.6 1.6H25a1.6 1.6 0 0 0 1.6-1.6v-4.21l-6.13.38zm-1.35-10.3h5.14c1.6 0 2.89 1.23 2.9 2.75l.04 4.01h-8.04l-.04-6.76z" stroke="#1d1d1b" stroke-linejoin="round" fill="none" stroke-width="3"/></svg>