<?xml version="1.0" encoding="UTF-8"?>
<svg id="_Слой_2" data-name="Слой 2" xmlns="http://www.w3.org/2000/svg" viewBox="0 0 43.91 50.55">
  <defs>
    <style>
      .cls-1 {
        stroke-linejoin: round;
      }

      .cls-1, .cls-2 {
        fill: none;
        stroke: #fff;
        stroke-width: 5px;
      }

      .cls-2 {
        stroke-linecap: round;
        stroke-miterlimit: 10;
      }

      .cls-3 {
        fill: #1d1d1b;
      }
    </style>
  </defs>
  <rect class="cls-3" x="1.66" y="1.79" width="40.85" height="47.23"/>
  <path class="cls-3" d="M10.85,7.79l-3.32,7.02,.26,18.51,.38,7.4,6.89-1.28,7.79-3.32,7.28,4.34s2.43,1.28,2.94,1.4,3.06-2.55,3.06-2.55l-.77-21.45-1.4-8.17-4.47-1.66s-11.74,.13-12.89,.13-5.74-.38-5.74-.38Z"/>
  <path class="cls-1" d="M12.96,7.66l17.23,.06c4.45,.28,5.71,3.85,5.74,8.68l-.06,22.43c-.22,1.99-2.13,3.02-3.87,2.79-1.27-.49-2.42-1.14-3.3-2.17-1.73-2.03-4.35-3.06-7.01-3.06h-.38c-2.62,0-5.02,1.21-6.87,3.06-.84,.84-2.04,1.5-3.54,2.01-2.29,.16-3.53-1.04-3.74-2.81V16.15c.11-4.93,2.64-8.32,5.81-8.49Z"/>
  <line class="cls-2" x1="14.83" y1="19.23" x2="28.15" y2="19.23"/>
</svg>