<?xml version="1.0" encoding="UTF-8"?>
<svg id="_Слой_2" data-name="Слой 2" xmlns="http://www.w3.org/2000/svg" viewBox="0 0 39.49 49.79">
  <defs>
    <style>
      .cls-1 {
        fill: #1d1d1b;
        stroke: #1d1d1b;
        stroke-linejoin: round;
      }

      .cls-1, .cls-2 {
        stroke-width: 5px;
      }

      .cls-2 {
        fill: none;
        stroke: #fff;
        stroke-linecap: round;
        stroke-miterlimit: 10;
      }
    </style>
  </defs>
  <path class="cls-1" d="M9.88,4.34l19.78,.08c5.1,.34,6.56,4.74,6.59,10.69l-.07,27.61c-.26,2.45-2.44,3.72-4.45,3.43-1.45-.61-2.78-1.41-3.79-2.68-1.98-2.49-5-3.77-8.05-3.77h-.43c-3.01,0-5.76,1.49-7.89,3.76-.96,1.03-2.34,1.84-4.07,2.47-2.63,.2-4.05-1.28-4.3-3.46V14.79c.12-6.07,3.03-10.24,6.67-10.45Z"/>
  <line class="cls-2" x1="12.91" y1="18.89" x2="26.23" y2="18.89"/>
</svg>