<?xml version="1.0" encoding="UTF-8"?>
<svg id="_Слой_2" data-name="Слой 2" xmlns="http://www.w3.org/2000/svg" viewBox="0 0 35.74 40.34">
  <defs>
    <style>
      .cls-1 {
        stroke-linecap: round;
        stroke-miterlimit: 10;
      }

      .cls-1, .cls-2 {
        fill: none;
        stroke: #1d1d1b;
        stroke-width: 5px;
      }

      .cls-2 {
        stroke-linejoin: round;
      }
    </style>
  </defs>
  <path class="cls-2" d="M9.36,3.57l17.23,.06c4.45,.28,5.71,3.85,5.74,8.68l-.06,22.43c-.22,1.99-2.13,3.02-3.87,2.79-1.27-.49-2.42-1.14-3.3-2.17-1.73-2.03-4.35-3.06-7.01-3.06h-.38c-2.62,0-5.02,1.21-6.87,3.06-.84,.84-2.04,1.5-3.54,2.01-2.29,.16-3.53-1.04-3.74-2.81V12.06c.11-4.93,2.64-8.32,5.81-8.49Z"/>
  <line class="cls-1" x1="11.28" y1="15.15" x2="24.6" y2="15.15"/>
</svg>