<?xml version="1.0" encoding="UTF-8"?>
<svg id="_Слой_2" data-name="Слой 2" xmlns="http://www.w3.org/2000/svg" viewBox="0 0 41.11 41.87">
  <defs>
    <style>
      .cls-1 {
        fill: #010101;
      }
    </style>
  </defs>
  <path class="cls-1" d="M8.66,11.9l9.34,9.69c.76,.76,1.99,.77,2.76,.03,.03-.03,.06-.06,.09-.08,.8-.76,.81-2.03,.03-2.81L11.53,9.02c-.26-.26-.45-.6-.53-.96l-.53-2.34c-.12-.52-.44-.97-.9-1.25L5.5,2c-.78-.47-1.77-.35-2.42,.29l-.58,.58-.58,.58c-.64,.64-.76,1.64-.29,2.42l2.47,4.07c.28,.46,.73,.78,1.25,.9l2.34,.53c.36,.08,.7,.27,.96,.53Z"/>
  <path class="cls-1" d="M27.48,23.97c.77-.77,2.01-.77,2.78,0l8.64,8.61c1.85,1.85,1.85,4.85,0,6.7-1.85,1.85-4.85,1.85-6.7,0l-8.63-8.61c-.77-.77-.77-2.02,0-2.79l3.91-3.91Z"/>
  <path class="cls-1" d="M37.12,16.66c3.45-3.13,4.03-6.7,3.26-9.7-.02-.24-.08-.44-.29-.59l-.7-.57c-.12-.11-.28-.17-.45-.15-.16,.02-.31,.1-.41,.23l-4,5.2c-.11,.15-.29,.24-.48,.23l-1.45,.11c-.12,0-.24-.05-.34-.13l-2.8-2.38c-.11-.09-.19-.22-.21-.37l-.07-.53c-.09-.65,.08-1.31,.47-1.84l3.27-4.44c.17-.23,.14-.56-.07-.75l-.91-.71c-.18-.16-.38-.14-.65-.09-2.59,.51-7,3.01-8.12,6.48-.99,3.05-.64,5.19-.64,5.19,0,1.72-.56,3.37-1.26,4.06L1.76,34.64s-.07,.07-.11,.11c-1.61,1.61-1.61,4.23-.05,5.78,1.56,1.56,4.21,1.6,5.82-.01,.07-.07,.15-.15,.21-.23L26.45,19.95c2.31-2.06,6.9,.13,10.67-3.29Z"/>
</svg>