<svg xmlns="http://www.w3.org/2000/svg" viewBox="0 0 70.47 66.38" xmlns:v="https://vecta.io/nano"><path d="M55.55 4.6H17.98a9.93 9.93 0 0 0-9.93 9.93v34.26a9.93 9.93 0 0 0 9.93 9.93h37.57a9.93 9.93 0 0 0 9.93-9.93V14.53a9.93 9.93 0 0 0-9.93-9.93zm-.7 20.35l-18 17.03c-.72.68-1.63 1.12-2.61 1.26L24.1 45.23c-.84.17-1.59-.57-1.44-1.41l1.69-9.58c.34-1.47.6-2.57 1.58-3.46l12.13-10.95c.31-.28.77-.29 1.09-.02l5.57 4.65c.74.41 1.56-.38 1.18-1.13l-3.34-6.75c-.16-.33-.09-.73.19-.98l1.79-1.62c1.22-1.1 3.09-1.03 4.22.16l6.21 6.51c1.16 1.21 1.11 3.14-.11 4.29z" fill="#1d1d1b"/></svg>