<svg xmlns="http://www.w3.org/2000/svg" viewBox="0 0 29.7 34.13" fill="none" stroke="#1d1d1b" stroke-linejoin="round" xmlns:v="https://vecta.io/nano"><path d="M8.21 6.69h13.26c3.29 0 5.96 2.67 5.96 5.96v13.97a5.45 5.45 0 0 1-5.45 5.45H7.23c-2.72 0-4.94-2.21-4.94-4.94V12.6c0-3.26 2.65-5.91 5.91-5.91z" stroke-width="3"/><g stroke-linecap="round"><path d="M4.55 14.15h21.81" stroke-width="2"/><path d="M9.17 9.17V2.65m11.74 6.52V2.65" stroke-width="3"/></g><path d="M8.58 19.35h1.48v2.13H8.58zm6.25 0h1.48v2.13h-1.48zm6.22 0h1.48v2.13h-1.48zM8.46 25.64h2v.04h-2zm6.12 0h2v.04h-2zm6.15 0h2v.04h-2z" stroke-width="2"/></svg>