<svg xmlns="http://www.w3.org/2000/svg" viewBox="0 0 42.98 35.49" fill="#1d1d1b" stroke="#1d1d1b" stroke-linejoin="round" xmlns:v="https://vecta.io/nano"><path d="M3.06,16.26c3.02,1.29,4.91,2.34,6.74,3.37l9.22-10.21c-2.1-2.21-3.63-4.39-4.47-6.52L3.06,16.26Z" stroke-width="5"/><g stroke-width="4"><path d="M13.02 32.89l16-16.55" stroke-linecap="round"/><path d="M27.851 12.67l1.676-1.647 4.669 4.749-1.676 1.647z"/></g><path d="M32.48,10.51c1.55-1.92,2.83-3.86,3.55-5.84l4.13,4.1c-2.15,1.22-4.17,2.48-5.4,4l-2.27-2.26Z" stroke-width="5"/><path d="M22.51 22.81l-8.3-8.26m17.28 17.71l-3.7-4.05" stroke-width="4" stroke-linecap="round"/><path d="M14.21 19.23l5.11-5.95" stroke-linecap="round" stroke-width="5"/></svg>