<svg xmlns="http://www.w3.org/2000/svg" viewBox="0 0 17.11 20.43" fill="none" stroke="#1d1d1b" stroke-width="1.5" xmlns:v="https://vecta.io/nano"><path d="M5.87,15.7c0,2.82,5.19,2.82,5.19,0" stroke-miterlimit="10" stroke-linecap="round"/><path d="M3.4 14.83h-.07c-.76-.6-1.21-1.63-1.23-2.62h0c0-.75.57-1.36 1.29-1.36h0V6.59c0-.73.21-1.45.63-2.03.64-.88 1.29-1.37 1.96-1.62 1.64-.41 3.35-.42 5.14 0 1.02.41 1.76 1.01 2.16 1.84.21.43.28.92.28 1.4v4.77h.03c.67 0 1.21.56 1.22 1.26h0c.01 1.05-.47 2-1.29 2.61h-.04c0 .23-10.1.23-10.1 0z" stroke-linejoin="round"/></svg>