<svg xmlns="http://www.w3.org/2000/svg" viewBox="0 0 35.36 42.26" fill="none" stroke="#1d1d1b" stroke-width="5" xmlns:v="https://vecta.io/nano"><path d="M10.91,33.57c0,7.61,13.36,7.61,13.36,0" stroke-miterlimit="10" stroke-linecap="round"/><path d="M6.11 31.6h-.16c-1.73-1.36-2.75-3.69-2.78-5.94h0c-.02-1.7 1.3-3.09 2.93-3.09h0v-9.64c0-1.65.47-3.28 1.43-4.6 1.45-1.98 2.93-3.11 4.44-3.66 3.72-.93 7.6-.96 11.66 0 2.32.93 3.98 2.3 4.89 4.16.47.98.64 2.08.64 3.17v10.82h.07c1.52 0 2.75 1.27 2.77 2.85h0c.03 2.39-1.07 4.53-2.94 5.92h-.08c0 .53-22.9.53-22.89 0z" stroke-linejoin="round"/></svg>