<?xml version="1.0" encoding="UTF-8"?>
<svg id="_Слой_3" data-name="Слой 3" xmlns="http://www.w3.org/2000/svg" viewBox="0 0 17.11 20.43">
  <defs>
    <style>
      .cls-1 {
        stroke-miterlimit: 10;
      }

      .cls-1, .cls-2 {
        fill: none;
        stroke: #1d1d1b;
        stroke-linecap: round;
        stroke-width: 1.5px;
      }

      .cls-2 {
        stroke-linejoin: round;
      }
    </style>
  </defs>
  <path class="cls-1" d="M5.87,15.7c0,2.82,5.19,2.82,5.19,0"/>
  <path class="cls-2" d="M3.4,14.83h-.07c-.76-.6-1.21-1.63-1.23-2.62h0c0-.75,.57-1.36,1.29-1.36h0V6.59c0-.73,.21-1.45,.63-2.03,.64-.88,1.29-1.37,1.96-1.62,1.64-.41,3.35-.42,5.14,0,1.02,.41,1.76,1.01,2.16,1.84,.21,.43,.28,.92,.28,1.4v4.77s.03,0,.03,0c.67,0,1.21,.56,1.22,1.26h0c.01,1.05-.47,2-1.29,2.61h-.04c0,.23-10.1,.23-10.1,0Z"/>
</svg>