<svg xmlns="http://www.w3.org/2000/svg" viewBox="0 0 24.56 31.15" xmlns:v="https://vecta.io/nano"><g fill="#1d1d1b" stroke="#1d1d1b" stroke-linejoin="round"><path d="M20.19 28.26V4" stroke-linecap="round" stroke-width="3"/><path d="M17.63 4.94v3.87h1.88l.11-4.6s-1.99.6-1.99.72zm-.08 8.93v1.71h2.15v-1.74s-2.15-.02-2.15.04z" stroke-width="4"/><path d="M9.26 4.6L7.55 17.49h3.24L9.26 4.6zm-.64 13.66h1.19v5.79H8.62z" stroke-width="2"/></g><path d="M7.43 21.28c-4.47-.56-5.42.99-3.87 4.04.47.9 1.73.98 3.74.13.54-1.53.66-2.94.13-4.17zm3.52 0c4.47-.56 5.42.99 3.87 4.04-.47.9-1.73.98-3.74.13-.54-1.53-.66-2.94-.13-4.17z" stroke="#1d1d1b" stroke-linejoin="round" stroke-width="2" fill="none"/></svg>