<?xml version="1.0" encoding="UTF-8"?>
<svg id="_Слой_2" data-name="Слой 2" xmlns="http://www.w3.org/2000/svg" viewBox="0 0 44.43 32.55">
  <defs>
    <style>
      .cls-1, .cls-2 {
        fill: #1d1d1b;
      }

      .cls-1, .cls-2, .cls-3 {
        stroke: #1d1d1b;
        stroke-linecap: round;
        stroke-linejoin: round;
      }

      .cls-1, .cls-3 {
        stroke-width: 3px;
      }

      .cls-2 {
        stroke-width: 2px;
      }

      .cls-3 {
        fill: none;
      }
    </style>
  </defs>
  <path class="cls-3" d="M7.88,11.92V7.04c0-1.89,1.53-3.42,3.42-3.42,3.64-.35,9.39-.23,12.84-.12,1.87,.06,3.61,.93,4.78,2.39,1.7,2.11,1.62,3.86,2.96,6.2l-14.38,.38,.07-8.44"/>
  <path class="cls-2" d="M9.59,3.46c3.35-2.44,12.96-2.42,17.67,.44"/>
  <path class="cls-1" d="M5.28,23.38c0-1.37,1.11-2.48,2.48-2.48h5.12c1.37,0,2.98,1.11,2.98,2.48v.31h13.56v-.38c0-1.37,1.11-2.48,2.48-2.48h5.12c1.37,0,2.88,1.11,2.88,2.48v.38h2.64c0-2.88-1.3-6.53-4.71-9.39-2.14-1.79-7.17-2.75-9.96-2.75H6.99c-2.7,.4-4.18,2.1-4.92,4.6v7.53h3.21v-.31Z"/>
  <line class="cls-1" x1="29.06" y1="6.65" x2="29.06" y2="11.51"/>
  <path class="cls-3" d="M31.47,22.3h6.38c.83,0,1.51,.68,1.51,1.51v5.12c0,1.01-.82,1.83-1.83,1.83h-5.74c-1.01,0-1.83-.82-1.83-1.83v-5.12c0-.83,.68-1.51,1.51-1.51Z"/>
  <path class="cls-3" d="M7.76,22.22h6.38c.83,0,1.51,.68,1.51,1.51v5.12c0,1.01-.82,1.83-1.83,1.83h-5.74c-1.01,0-1.83-.82-1.83-1.83v-5.12c0-.83,.68-1.51,1.51-1.51Z"/>
</svg>