<svg xmlns="http://www.w3.org/2000/svg" viewBox="0 0 47.32 56.26" xmlns:v="https://vecta.io/nano"><style><![CDATA[.E{stroke-linejoin:round}.F{stroke:#1d1d1b}.G{stroke-linecap:round}]]></style><path d="M39.51 31.77c1.6-4.78.38-9.64-5.3-15.13" fill="none" stroke-width="10" class="E F G"/><ellipse cx="26.81" cy="7.74" rx="5.11" ry="5.28" fill="#1d1d1b"/><g stroke-width="5" class="E F"><path d="M18.13 46.96L4.85 40.38l10.72-5.87m10.15 12.45L39 40.38l-11.74-5.49" fill="none" class="G"/><path d="M21.91,33.79c2.48,0,4.57,1.55,5.28,3.69l4.59-.54-3.38-2.4c-2.02-1.43-4.41-2.32-6.88-2.31-.59,0-1.17,.04-1.76,.12-1.75,.25-3.4,.98-4.86,1.96l-3.8,2.56,5.51,.66c.69-2.16,2.8-3.74,5.3-3.74Z"/></g><g fill="none" class="E"><g stroke="#fff" stroke-width="2"><path d="M21.64 38.13l-5.02-.6c-.15.49-.24 1-.24 1.54 0 2.91 2.48 5.28 5.54 5.28s5.54-2.36 5.54-5.28c0-.55-.09-1.09-.26-1.59l-5.56.65z"/><path d="M27.19,37.47c-.71-2.14-2.8-3.69-5.28-3.69s-4.61,1.58-5.3,3.74l5.08-2.32,5.49,2.26h.01Z"/></g><g class="F G"><path d="M8.21,33.49c8.98-7.76,19.43-7.1,28.34,1.02" stroke-width="2"/><path d="M20.87 23.28l7.22-.71 4.02-7.21" stroke-width="5"/></g></g><ellipse cx="21.96" cy="39.07" rx="4.6" ry="4.44" fill="#010200" stroke="#000" class="E"/></svg>