<svg xmlns="http://www.w3.org/2000/svg" viewBox="0 0 44.43 32.55" xmlns:v="https://vecta.io/nano"><style><![CDATA[.D{stroke-linejoin:round}.E{fill:#1d1d1b}.F{stroke-linecap:round}]]></style><g stroke="#1d1d1b" class="D"><g class="F"><path d="M7.88 11.92V7.04a3.42 3.42 0 0 1 3.42-3.42c3.64-.35 9.39-.23 12.84-.12 1.87.06 3.61.93 4.78 2.39 1.7 2.11 1.62 3.86 2.96 6.2l-14.38.38.07-8.44" stroke-width="3" fill="none"/><path d="M9.59 3.46c3.35-2.44 12.96-2.42 17.67.44" stroke-width="2" class="E"/></g><g stroke-width="3"><path d="M5.28 23.38a2.48 2.48 0 0 1 2.48-2.48h5.12c1.37 0 2.98 1.11 2.98 2.48v.31h13.56v-.38a2.48 2.48 0 0 1 2.48-2.48h5.12c1.37 0 2.88 1.11 2.88 2.48v.38h2.64c0-2.88-1.3-6.53-4.71-9.39-2.14-1.79-7.17-2.75-9.96-2.75H6.99c-2.7.4-4.18 2.1-4.92 4.6v7.53h3.21v-.31z" class="E"/><path d="M29.06 6.65v4.86" class="E F"/><path d="M31.47 22.3h6.38c.83 0 1.51.68 1.51 1.51v5.12a1.83 1.83 0 0 1-1.83 1.83h-5.74a1.83 1.83 0 0 1-1.83-1.83v-5.12c0-.83.68-1.51 1.51-1.51zm-23.71-.08h6.38c.83 0 1.51.68 1.51 1.51v5.12a1.83 1.83 0 0 1-1.83 1.83H8.08a1.83 1.83 0 0 1-1.83-1.83v-5.12c0-.83.68-1.51 1.51-1.51z" fill="none"/></g></g></svg>