<svg xmlns="http://www.w3.org/2000/svg" viewBox="0 0 25.87 27.91" fill="none" stroke="#1d1d1b" stroke-linecap="round" stroke-linejoin="round" stroke-width="1.5" xmlns:v="https://vecta.io/nano"><path d="M20.85 19.68c-3.19.63-4.46-.51-4.05-3.94h0c-.02-1.35 1.08-2.46 2.43-2.46h1.03v-2.04c-2.21-7.39-13.81-6.91-14.64 0v2.04h1.04c1.32 0 2.39 1.05 2.43 2.37h0c.35 3.41-1.47 4.36-4.85 4.1-.83 0-1.51-.68-1.51-1.51v-7.17c.52-11.49 20.04-9.96 20.29-.01l.07 7.16m-2.23 1.52c.02 2.1.24 2.81-2.43 2.85v2.09c5.3.03 4.66-2.38 4.67-6.46"/></svg>