<svg xmlns="http://www.w3.org/2000/svg" viewBox="0 0 27.83 21.19" xmlns:v="https://vecta.io/nano"><g stroke-width="1.5" fill="none" stroke="#1d1d1b" stroke-linecap="round" stroke-linejoin="round"><path d="M9.45 9.2V7.97"/><path d="M9.45 4.99v-.74a.93.93 0 0 0-.57-.85h0c-.44-.18-.91-.27-1.38-.27H5.34c-.83 0-1.51.68-1.51 1.51v7.7c0 .83.68 1.51 1.51 1.51h3.34c.41.02.63-.24.77-.64v-1.15m10.51 1.19c.65-.21.68-.64.68-1.36V4.85a1.61 1.61 0 0 0-1.61-1.61H10.3c-.27 0-.55.15-.85.38m.08 9.4c.1.51-.03.48.86.52h1.16"/><path d="M19.6 14.46a4.03 4.03 0 0 0 .34-1.63c0-2.23-1.81-4.04-4.04-4.04s-4.04 1.81-4.04 4.04 1.81 4.04 4.04 4.04c.79 0 1.53-.23 2.15-.62m-.01.01l2.24.9-.68-2.7"/></g><path d="M15.68 14.94h0m-.03-1.05v-.61c.59-.11 1.07-.28 1.23-.67.12-.4.22-.92 0-1.32-.52-.74-1.92-.56-2.07.45v.54" fill="none" stroke="#1d1d1b" stroke-linecap="round" stroke-linejoin="round" stroke-width=".75"/></svg>