<?xml version="1.0" encoding="UTF-8"?>
<svg id="_Слой_2" data-name="Слой 2" xmlns="http://www.w3.org/2000/svg" viewBox="0 0 36.13 51.45">
  <defs>
    <style>
      .cls-1 {
        fill: #1d1d1b;
      }

      .cls-1, .cls-2, .cls-3 {
        stroke: #1d1d1b;
        stroke-linecap: round;
        stroke-linejoin: round;
      }

      .cls-1, .cls-3 {
        stroke-width: 3px;
      }

      .cls-2 {
        stroke-width: 5px;
      }

      .cls-2, .cls-3 {
        fill: none;
      }
    </style>
  </defs>
  <ellipse class="cls-2" cx="18.75" cy="16.28" rx="1.99" ry="1.9"/>
  <path class="cls-1" d="M14.52,6.52c1.12,2.12,1.91,4.76,2.69,7.41-4.47-2.55-8.88-4.12-13.19-3.84-.54-1.34-.33-2.6,.23-3.7,2.11-4.18,8.08-4,10.26,.14Z"/>
  <path class="cls-1" d="M28.44,12.8c-2.21,.94-4.91,1.5-7.61,2.06,2.92-4.24,4.85-8.5,4.94-12.81,1.38-.42,2.62-.11,3.67,.54,3.99,2.46,3.3,8.39-1.01,10.22Z"/>
  <path class="cls-1" d="M21.96,25.66c-.89-2.23-1.39-4.94-1.89-7.65,4.17,3.01,8.39,5.04,12.7,5.22,.39,1.39,.05,2.62-.62,3.66-2.54,3.93-8.46,3.12-10.19-1.23Z"/>
  <path class="cls-1" d="M8.79,19.72c2.28-.75,5.02-1.07,7.76-1.4-3.27,3.97-5.56,8.06-6.02,12.35-1.41,.3-2.62-.12-3.61-.85-3.77-2.79-2.58-8.64,1.87-10.09Z"/>
  <path class="cls-3" d="M1.78,49.68v-12.32c0-3.3,9.06-3.3,9.06,0v12.2"/>
  <line class="cls-3" x1="10.54" y1="43.34" x2="2.26" y2="43.34"/>
  <line class="cls-3" x1="22.19" y1="36.03" x2="16.85" y2="49.53"/>
  <path class="cls-3" d="M34.15,48.08l-2.89-.74c-1.65-.42-2.81-1.91-2.81-3.62v-3.83c0-1.62,1.13-3.02,2.71-3.36l3.17-.68"/>
</svg>