<svg xmlns="http://www.w3.org/2000/svg" viewBox="0 0 36.13 51.45" stroke="#1d1d1b" stroke-linejoin="round" xmlns:v="https://vecta.io/nano"><ellipse cx="18.75" cy="16.28" rx="1.99" ry="1.9" stroke-width="5" fill="none"/><path d="M14.52 6.52c1.12 2.12 1.91 4.76 2.69 7.41-4.47-2.55-8.88-4.12-13.19-3.84-.54-1.34-.33-2.6.23-3.7 2.11-4.18 8.08-4 10.26.14zm13.92 6.28c-2.21.94-4.91 1.5-7.61 2.06 2.92-4.24 4.85-8.5 4.94-12.81 1.38-.42 2.62-.11 3.67.54 3.99 2.46 3.3 8.39-1.01 10.22zm-6.48 12.86c-.89-2.23-1.39-4.94-1.89-7.65 4.17 3.01 8.39 5.04 12.7 5.22.39 1.39.05 2.62-.62 3.66-2.54 3.93-8.46 3.12-10.19-1.23zM8.79 19.72c2.28-.75 5.02-1.07 7.76-1.4-3.27 3.97-5.56 8.06-6.02 12.35-1.41.3-2.62-.12-3.61-.85-3.77-2.79-2.58-8.64 1.87-10.09z" fill="#1d1d1b" stroke-width="3"/><path d="M1.78 49.68V37.36c0-3.3 9.06-3.3 9.06 0v12.2m-.3-6.22H2.26m19.93-7.31l-5.34 13.5m17.3-1.45l-2.89-.74c-1.65-.42-2.81-1.91-2.81-3.62v-3.83c0-1.62 1.13-3.02 2.71-3.36l3.17-.68" stroke-width="3" fill="none" stroke-linecap="round"/></svg>