<?xml version="1.0" encoding="UTF-8"?>
<svg id="_Слой_2" data-name="Слой 2" xmlns="http://www.w3.org/2000/svg" viewBox="0 0 45.96 43.06">
  <defs>
    <style>
      .cls-1 {
        fill: #222;
      }

      .cls-2 {
        fill: none;
        stroke: #222;
        stroke-linecap: round;
        stroke-linejoin: round;
        stroke-width: 4px;
      }
    </style>
  </defs>
  <path class="cls-1" d="M22.95,1.08C10.63,1.08,.64,10.19,.64,21.43s9.99,20.35,22.31,20.35,22.31-9.11,22.31-20.35S35.27,1.08,22.95,1.08Zm8.43,20.63c0,2.04-1.55,3.75-3.6,4.15h0v9.4c0,1.4-1.21,2.54-2.7,2.54h-3.6c-1.49,0-2.7-1.14-2.7-2.54v-9.4c-2.05-.4-3.6-2.11-3.6-4.15v-6.77c0-2.33,2.03-4.23,4.5-4.23h.02c-.57-.71-.92-1.59-.92-2.54,0-2.33,2.03-4.23,4.5-4.23s4.5,1.9,4.5,4.23c0,.95-.35,1.83-.92,2.54h.02c2.48,0,4.5,1.9,4.5,4.23v6.77Z"/>
  <path class="cls-2" d="M6.58,11.38h11.81c-3.07,.16-3.95,.99-5.11,4.17"/>
  <line class="cls-2" x1="28.16" y1="11.38" x2="39.95" y2="11.38"/>
  <path class="cls-1" d="M16.72,8.38c-.93,.26-1.87,.61-2.65,1.19-.88,.65-1.61,1.4-2.18,2.35-1.04,1.72-1.32,3.76-1.38,5.74-.04,1.31,1.18,2.56,2.5,2.5,1.39-.06,2.46-1.1,2.5-2.5,.02-.55,.05-1.1,.12-1.65l-.09,.66c.1-.7,.26-1.39,.52-2.04l-.25,.6c.21-.48,.46-.93,.78-1.35l-.39,.51c.27-.33,.56-.63,.9-.89l-.51,.39c.31-.23,.63-.41,.99-.57l-.6,.25c.35-.15,.7-.26,1.07-.37,1.26-.36,2.16-1.78,1.75-3.08s-1.73-2.13-3.08-1.75h0Z"/>
  <path class="cls-1" d="M29.69,13.39h.12c-.22-.02-.44-.05-.66-.08,.27,.04,.52,.11,.77,.21l-.6-.25c.28,.12,.54,.28,.78,.46l-.51-.39c.26,.21,.5,.45,.7,.72l-.39-.51c.26,.35,.46,.72,.63,1.12l-.25-.6c.63,1.52,.94,3.2,1.16,4.81,.08,.57,.67,1.22,1.15,1.49,.54,.31,1.33,.45,1.93,.25s1.19-.57,1.49-1.15l.25-.6c.12-.44,.12-.89,0-1.33-.26-1.89-.68-3.78-1.47-5.53-.37-.82-.93-1.61-1.63-2.19-.42-.34-.84-.67-1.33-.89-.74-.33-1.34-.48-2.15-.56-.6-.06-1.36,.32-1.77,.73-.43,.43-.76,1.15-.73,1.77s.24,1.32,.73,1.77c.52,.47,1.07,.66,1.77,.73h0Z"/>
  <path class="cls-1" d="M29.32,13.37c.17-.01,.33,0,.5,.01l-.66-.09c.19,.03,.37,.08,.55,.15l-.6-.25c.12,.05,.24,.11,.35,.19,.29,.18,.6,.28,.93,.3,.33,.07,.66,.06,1-.04,.33-.08,.61-.23,.85-.45,.27-.18,.49-.41,.64-.7l.25-.6c.12-.44,.12-.89,0-1.33l-.25-.6c-.22-.38-.52-.67-.9-.9-.1-.07-.21-.13-.33-.18-.29-.13-.61-.29-.93-.36s-.68-.12-1.02-.15c-.13-.01-.25,0-.38,0-.34-.01-.67,.06-.96,.22-.31,.1-.58,.27-.8,.52-.24,.23-.42,.49-.52,.8-.16,.3-.23,.62-.22,.96l.09,.66c.12,.42,.33,.79,.64,1.1l.51,.39c.39,.23,.81,.34,1.26,.34h0Z"/>
  <path class="cls-2" d="M28.3,11.43c3.07,.16,3.95,.99,5.11,4.17"/>
</svg>