<svg xmlns="http://www.w3.org/2000/svg" viewBox="0 0 25.53 31.15" stroke="#1d1d1b" stroke-linejoin="round" stroke-width="3" xmlns:v="https://vecta.io/nano"><path d="M11.19 2.01h3.11c.56 0 1.02.51 1.02 1.15v12.38h-5.15V3.16c0-.63.46-1.15 1.02-1.15z" fill="#1d1d1b"/><g fill="none"><path d="M6.99 15.57h11.68c.98 0 1.95.31 2.71.93.66.54 1.21 1.18 1.61 1.96.35.67.47 1.42.47 2.18v7.13a1.6 1.6 0 0 1-1.6 1.6H3.49a1.6 1.6 0 0 1-1.6-1.6v-7.6c0-.51.07-1.02.26-1.49.25-.6.63-1.16 1.15-1.66.98-.95 2.32-1.44 3.69-1.44z"/><path d="M12.68 29.19v-9.02m5.15 8.94v-6.05M7.49 29.19v-6.25" stroke-linecap="round"/></g></svg>