<?xml version="1.0" encoding="UTF-8"?>
<svg id="_Слой_2" data-name="Слой 2" xmlns="http://www.w3.org/2000/svg" viewBox="0 0 25.53 31.15">
  <defs>
    <style>
      .cls-1 {
        stroke-linecap: round;
      }

      .cls-1, .cls-2, .cls-3 {
        stroke: #1d1d1b;
        stroke-linejoin: round;
        stroke-width: 3px;
      }

      .cls-1, .cls-3 {
        fill: none;
      }

      .cls-2 {
        fill: #1d1d1b;
      }

      .cls-2, .cls-3 {
        stroke-linecap: square;
      }
    </style>
  </defs>
  <path class="cls-2" d="M11.19,2.01h3.11c.56,0,1.02,.51,1.02,1.15V15.54h-5.15V3.16c0-.63,.46-1.15,1.02-1.15Z"/>
  <path class="cls-3" d="M6.99,15.57h11.68c.98,0,1.95,.31,2.71,.93,.66,.54,1.21,1.18,1.61,1.96,.35,.67,.47,1.42,.47,2.18v7.13c0,.88-.71,1.6-1.6,1.6H3.49c-.88,0-1.6-.71-1.6-1.6v-7.6c0-.51,.07-1.02,.26-1.49,.25-.6,.63-1.16,1.15-1.66,.98-.95,2.32-1.44,3.69-1.44Z"/>
  <line class="cls-1" x1="12.68" y1="29.19" x2="12.68" y2="20.17"/>
  <line class="cls-1" x1="17.83" y1="29.11" x2="17.83" y2="23.06"/>
  <line class="cls-1" x1="7.49" y1="29.19" x2="7.49" y2="22.94"/>
</svg>